[img]http://img837.imageshack.us/img837/9264/residentevilafterlifege.jpg[/img]
[CODE]

 Resident Evil Afterlife TS XViD V2 - IMAGiNE
********************************************************************************************************************

Ripper ...........: IMAGiNE                                        IMDB Rating.......:7.8/10                             
Video Codec.......: XVID                                         Release Date......:13/09/10
Audio Codec.......:MP3                                           Theatre Date......:10/09/10
Audio Bitrate.....:128                                              Runtime.......:1h 25mn
Subtitles.........:NIL                                                 Language..........:ENGLISH
Resolution...... 624 x 256                                      IMDb URL..........:http://www.imdb.com/title/tt1220634/


DETAILS:

Video
ID                               : 0
Format                           : MPEG-4 Visual
Format profile                   : Advanced Simple@L5
Format settings, BVOP            : Yes
Format settings, QPel            : No
Format settings, GMC             : No warppoints
Format settings, Matrix          : Default (MPEG)
Muxing mode                      : Packed bitstream
Codec ID                         : XVID
Codec ID/Hint                    : XviD
Duration                         : 1h 25mn
Bit rate                         : 1 019 Kbps
Width                            : 624 pixels
Height                           : 256 pixels
Display aspect ratio             : 2.438
Frame rate                       : 25.000 fps
Resolution                       : 24 bits
Colorimetry                      : 4:2:0
Scan type                        : Progressive
Bits/(Pixel*Frame)               : 0.255
Stream size                      : 625 MiB (88%)
Writing library                  : XviD 1.2.1 (UTC 2008-12-04)

Audio
ID                               : 1
Format                           : MPEG Audio
Format version                   : Version 1
Format profile                   : Layer 3
Codec ID                         : 55
Codec ID/Hint                    : MP3
Duration                         : 1h 25mn
Bit rate mode                    : Constant
Bit rate                         : 128 Kbps
Channel(s)                       : 2 channels
Sampling rate                    : 44.1 KHz
Resolution                       : 16 bits
Stream size                      : 78.5 MiB (11%)
Alignment                        : Split accross interleaves
Interleave, duration             : 40 ms (1.00 video frame)
Interleave, preload duration     : 500 ms


SOURCES:

VIDEO:Russian mpeg files.......Thanks bro  
AUDIO:OWN LiNE

NOTES:

IMAGiNE bringing you another release..........Resident.Evil.Afterlife

Well here's our v2 of this.....yet again same video source but tweaked differently.....
Made it brighter and a touch more colour and filtered the rgb colours differently....Theres some screens below
that show the difference between this release and our last one.

Now the audio is our own line and we think it's sounds better,got more life to it and nicer levels......but thats just our 
opinion.
Anyway enjoy,what looks like a top flick 

[/CODE]
Screens:

[img]http://img690.imageshack.us/img690/7885/26177501.png[/img]
[img]http://img823.imageshack.us/img823/7923/93131421.png[/img]
[img]http://img827.imageshack.us/img827/148/27348093.png[/img]
[img]http://img508.imageshack.us/img508/417/44679391.png[/img]
[img]http://img72.imageshack.us/img72/6485/92029027.png[/img]
[img]http://img37.imageshack.us/img37/2663/98372816.png[/img]
